<svg xmlns="http://www.w3.org/2000/svg" viewBox="0 0 64 64" id="Hoodie"><g fill="#34a853" class="color333433 svgShape"><path d="M34.042 24.425c.063-.262.097-.463.11-.591a5.53 5.53 0 0 0-.11.591zM33.465 13.533c.251-.013 5.164-.16 7.801 2.691-.1-.414-.265-.654-.265-.654-4.228-7.705-7.706-8.182-7.706-8.182-3.049 1.173-6.298 6.682-7.148 8.198 1.33-.934 3.569-1.854 7.318-2.053z" fill="#4285f4" class="color000000 svgShape"></path><path d="M33.514 14.607c-5.104.27-7.088 1.932-7.81 2.862.126 1.286 1.071 2.263 1.74 2.805 1.326.18 4.725.834 5.32 2.848a.584.584 0 0 1 .018.083c.001.01.062.463.186 1.134.016-.129.028-.262.051-.385a.516.516 0 0 1-.061-.228c-.025-1.368-.658-1.794-1.614-2.436-.514-.345-1.098-.74-1.646-1.336-1.72-1.876-.946-3.648-.912-3.723a.537.537 0 0 1 .981.44c-.025.06-.496 1.229.722 2.558.46.502.965.842 1.454 1.17.662.444 1.333.908 1.73 1.711.85-1.518 2.221-2.344 3.126-2.885.136-.08.259-.154.371-.224.538-.339.333-1.57-.037-2.609a.537.537 0 1 1 1.013-.36c.68 1.907.537 3.284-.401 3.876-.118.075-.25.155-.392.241-.974.58-2.402 1.438-3.039 3.157 1.237-2.489 4.748-3.063 4.901-3.088.031-.004.062.005.091.005 1.053-.853 1.598-1.655 1.846-2.345-1.952-3.441-7.575-3.28-7.638-3.271z" fill="#4285f4" class="color000000 svgShape"></path><path d="M18.128 50.197 22.85 35.56l.168 18.053s-.057.994.473 1.746c.233.043.575.095.773.123.201.029.368.057.439.072.032.006 3.422.68 7.841.623-.702-5.859-.019-27.185.037-28.829a28.15 28.15 0 0 1-.86-3.958c-.341-1.026-2.207-1.626-3.617-1.913l-.005.369-7.96 3.541-6.652 23.948 4.641.862zm6.805-2.025 3.017-5.25a.538.538 0 0 1 .732-.199.538.538 0 0 1 .198.734l-3.018 5.249a.53.53 0 0 1-.465.269.536.536 0 0 1-.464-.803zM41.191 54.996c.488-.167 1.34-.477 1.678-.635.04-.135.068-.266.07-.379l.172-18.424 4.705 14.592 4.666-.771-6.662-23.992-7.075-3.568-.152-.353c-1.01.292-2.71.978-3.362 2.386-.045.445-.306 2.186-1.58 3.633-.067 2.104-.723 23.226-.03 28.658 2.757-.11 5.306-.485 7.57-1.147zM37 42.723a.539.539 0 0 1 .732.199l3.018 5.25a.538.538 0 0 1-.198.732.53.53 0 0 1-.267.068.53.53 0 0 1-.467-.268L36.8 43.455a.537.537 0 0 1 .2-.732z" fill="#4285f4" class="color000000 svgShape"></path><path d="M13.52 50.434c-.293.666-.708 1.729-.558 2.105l3.71.671s.491-1.054.848-2.03l-4-.746zM48.535 51.119c.357.977.867 2.061.867 2.061l3.636-.66c.146-.359-.263-1.387-.562-2.052l-3.941.651zM41.518 56.02c-2.511.73-5.308 1.141-8.342 1.223-.394.01-.78.016-1.158.016-4.256 0-7.387-.621-7.529-.65-.069-.014-.212-.034-.386-.062h-.004c0 .263-.004.616-.016 1.099 0 0 5.511 2.198 18.229-.313l.002-1.593a52.68 52.68 0 0 1-.796.28z" fill="#4285f4" class="color000000 svgShape"></path></g></svg>